<?xml version="1.0" encoding="UTF-8"?>
<!DOCTYPE svg PUBLIC "-//W3C//DTD SVG 1.1//EN" "http://www.w3.org/Graphics/SVG/1.1/DTD/svg11.dtd">
<svg version="1.1" xmlns="http://www.w3.org/2000/svg" xmlns:xlink="http://www.w3.org/1999/xlink" x="0" y="0" width="700" height="700" viewBox="0, 0, 700, 700">
  <g id="Layer_1">
    <path d="M350,0.285 L652.862,175.142 L652.862,524.858 L350,699.715 L47.138,524.857 L47.138,175.142 L350,0.285 z M359.5,171 L340.5,171 L340.5,212.913 C325.887,214.202 311.375,217.058 297.868,222.961 Q273.068,233.59 255.859,252.57 Q238.651,271.549 229.794,297.615 Q220.936,323.681 220.936,354.049 Q220.936,383.405 230.553,407.952 Q240.169,432.5 257.378,450.214 Q274.586,467.929 299.134,477.798 C312.389,482.93 326.288,486.266 340.5,487.172 L340.5,529 L359.5,529 L359.5,487.56 C363.643,487.276 367.798,487.142 371.928,486.707 C396.12,484.156 419.613,475.849 438.573,460.337 Q471.978,433.006 479.064,380.874 L409.724,380.874 Q406.181,405.168 392.262,419.593 C383.424,428.235 371.849,433.021 359.5,433.681 L359.5,266.701 C387.326,268.496 402.893,284.298 407.193,311.534 L477.545,311.534 Q476.027,286.227 465.398,267.753 Q454.769,249.28 437.814,236.879 Q420.859,224.479 399.348,218.406 C386.327,214.976 373.008,212.58 359.5,212.413 L359.5,171 z M340.5,267.979 L340.5,432.893 C334.727,431.346 329.169,429.935 324.187,426.426 Q312.546,418.834 305.713,406.94 Q298.881,395.046 295.844,380.368 Q292.807,365.69 292.807,351.518 Q292.807,336.841 295.844,321.91 Q298.881,306.979 306.22,294.579 Q313.558,282.178 325.2,274.333 C329.951,271.419 334.947,268.951 340.5,267.979 z" fill="#313131"/>
  </g>
</svg>
