<?xml version="1.0" encoding="UTF-8"?>
<!DOCTYPE svg PUBLIC "-//W3C//DTD SVG 1.1//EN" "http://www.w3.org/Graphics/SVG/1.1/DTD/svg11.dtd">
<svg version="1.1" xmlns="http://www.w3.org/2000/svg" xmlns:xlink="http://www.w3.org/1999/xlink" x="0" y="0" width="700" height="700" viewBox="0, 0, 700, 700">
  <g id="Layer_1">
    <path d="M350,0.551 L652.632,175.276 L652.632,524.724 L350,699.449 L47.368,524.724 L47.368,175.276 L350,0.551 z M350,153 C343.373,153 338,158.373 338,165 L338,516.117 L187.384,429.159 C184.296,427.376 179.106,430.584 175.793,436.323 C172.479,442.063 172.296,448.161 175.384,449.944 L347.798,549.487 C348.472,549.796 349.241,550.152 350,549.924 C350.758,550.082 351.535,549.845 352.202,549.487 L524.616,449.944 C527.704,448.161 527.521,442.063 524.207,436.323 C521.88,432.755 519.058,429.208 514.548,428.667 C513,428.918 513.626,428.696 512.616,429.159 L362,516.117 L362,165 C362,158.373 356.627,153 350,153 z" fill="#4F4F4F"/>
  </g>
</svg>
