<?xml version="1.0" encoding="UTF-8"?>
<!DOCTYPE svg PUBLIC "-//W3C//DTD SVG 1.1//EN" "http://www.w3.org/Graphics/SVG/1.1/DTD/svg11.dtd">
<svg version="1.1" xmlns="http://www.w3.org/2000/svg" xmlns:xlink="http://www.w3.org/1999/xlink" x="0" y="0" width="700" height="700" viewBox="0, 0, 700, 700">
  <g id="Layer_1">
    <path d="M350,0.14 L652.988,175.07 L652.988,524.93 L350,699.86 L47.012,524.93 L47.012,175.07 L350,0.14 z M280.981,182.757 Q255.587,182.757 226.775,195.128 Q197.963,207.499 174.197,230.289 Q146.85,256.659 134.479,282.867 Q122.107,309.074 122.107,344.886 Q122.107,371.257 127.153,391.116 Q132.2,410.975 144.896,432.136 Q149.78,440.275 154.826,446.949 Q159.872,453.624 167.035,460.786 Q176.801,470.878 185.592,477.064 Q193.08,482.273 206.753,489.435 Q223.682,498.225 237.03,502.62 Q250.378,507.016 267.958,509.62 L330.466,509.62 L330.466,341.63 L242.565,341.63 L242.565,395.674 L271.865,395.674 L271.865,448.415 Q268.284,448.415 264.377,448.089 Q260.471,447.763 253.797,446.298 Q247.123,444.833 240.774,441.903 Q234.426,438.973 226.938,434.09 Q217.822,428.23 211.311,421.719 Q207.079,417.486 203.497,412.603 Q198.94,406.417 195.847,400.394 Q192.754,394.371 189.824,387.209 Q185.592,375.814 183.801,367.513 Q182.01,359.211 182.01,348.793 Q182.01,339.352 182.987,332.352 Q183.964,325.352 186.568,316.888 Q191.126,301.912 196.823,292.959 Q202.521,284.006 213.915,273.263 Q229.542,258.287 255.262,249.497 Q275.446,242.66 290.748,242.66 Q307.026,242.66 317.607,247.543 Q328.187,252.427 331.117,257.636 L331.117,194.477 Q323.955,190.57 318.421,188.617 Q301.491,182.757 280.981,182.757 z M471.109,181.78 L367.58,181.78 L367.58,508.643 L427.484,508.643 L427.484,385.581 L506.92,508.643 L577.893,508.643 L497.805,378.419 Q531.663,368.327 550.22,342.444 Q568.777,316.562 568.777,280.751 Q568.777,246.567 543.058,216.289 Q513.757,181.78 471.109,181.78 z M439.529,238.102 Q453.528,238.102 470.458,240.381 Q486.41,242.66 497.805,256.008 Q509.199,269.356 507.572,282.053 Q505.944,295.075 505.618,297.029 Q503.99,304.191 498.781,310.539 Q493.572,316.888 484.945,320.957 Q476.318,325.027 463.295,325.027 Q458.737,325.027 451.575,325.352 Q444.413,325.678 441.157,325.678 Q433.669,325.678 426.832,324.376 L426.832,239.079 Q429.437,238.102 439.529,238.102 z" fill="#FFFFFF"/>
  </g>
</svg>
