<?xml version="1.0" encoding="UTF-8"?>
<!DOCTYPE svg PUBLIC "-//W3C//DTD SVG 1.1//EN" "http://www.w3.org/Graphics/SVG/1.1/DTD/svg11.dtd">
<svg version="1.1" xmlns="http://www.w3.org/2000/svg" xmlns:xlink="http://www.w3.org/1999/xlink" x="0" y="0" width="1000" height="1000" viewBox="0, 0, 1000, 1000">
  <g id="bg" display="none">
    <path d="M-9.49,-0 L1000,-0 L1000,1000 L-9.49,1000 L-9.49,-0 z" fill="#3EAFFA"/>
  </g>
  <g id="Layer_2">
    <path d="M500,-0 L933.36,250.2 L933.359,750.601 L500,1000.801 L66.64,750.601 L66.64,250.2 L500,-0 z M761.58,383.208 L755.02,383.208 L755.02,617.4 L898.356,617.4 L898.356,610.84 L761.58,610.84 L761.58,383.208 z M510.004,383.208 L499.18,383.208 L499.18,617.4 L505.74,617.4 L505.74,391.408 L506.396,391.408 L605.78,617.4 L612.996,617.4 L712.38,391.408 L713.036,391.408 L713.036,617.4 L719.596,617.4 L719.596,383.208 L708.772,383.208 L609.716,608.872 L609.06,608.872 L510.004,383.208 z M487.044,383.208 L312.22,383.208 L312.22,389.768 L396.188,389.768 L396.188,617.4 L402.748,617.4 L402.748,389.768 L487.044,389.768 L487.044,383.208 z M129.196,383.208 L122.636,383.208 L122.636,617.4 L129.196,617.4 L129.196,498.664 L293.196,498.664 L293.196,617.4 L299.756,617.4 L299.756,383.208 L293.196,383.208 L293.196,492.104 L129.196,492.104 L129.196,383.208 z" fill="#4F4F4F"/>
  </g>
</svg>
