<?xml version="1.0" encoding="UTF-8"?>
<!DOCTYPE svg PUBLIC "-//W3C//DTD SVG 1.1//EN" "http://www.w3.org/Graphics/SVG/1.1/DTD/svg11.dtd">
<svg version="1.1" xmlns="http://www.w3.org/2000/svg" xmlns:xlink="http://www.w3.org/1999/xlink" x="0" y="0" width="700" height="700" viewBox="0, 0, 700, 700">
  <g id="Layer_1">
    <path d="M350,9.62 L644.778,179.81 L644.778,520.19 L350,690.38 L55.222,520.19 L55.222,179.81 L350,9.62 z M335.825,167.216 L222.495,167.216 Q182.104,167.216 159.751,192.304 Q137.399,217.392 137.399,267.056 Q137.399,291.12 144.066,309.808 Q150.732,328.496 162.496,341.04 Q174.261,353.584 190.535,359.984 Q206.809,366.384 226.416,366.384 L327.982,366.384 L327.982,532.784 L335.825,532.784 L335.825,167.216 z M327.982,177.456 L327.982,356.144 L222.495,356.144 Q206.025,356.144 191.907,350.256 Q177.79,344.368 167.398,332.848 Q157.006,321.328 151.124,304.944 Q145.242,288.56 145.242,267.056 Q145.242,223.536 164.261,200.496 Q183.28,177.456 222.495,177.456 L327.982,177.456 z M470.725,167.216 L344.241,167.216 L344.241,532.784 L465.781,532.784 Q486.793,532.784 504.715,526.384 Q522.637,519.984 535.409,507.696 Q548.181,495.408 555.391,476.72 Q562.601,458.032 562.601,433.456 Q562.601,412.464 556.833,395.824 Q551.065,379.184 541.383,367.664 Q531.701,356.144 518.723,349.744 Q505.745,343.344 491.325,342.832 L491.325,341.808 Q504.921,340.784 516.251,333.872 Q527.581,326.96 535.821,315.696 Q544.061,304.432 548.799,289.584 Q553.537,274.736 553.537,258.352 Q553.537,235.312 547.151,218.416 Q540.765,201.52 529.435,190 Q518.105,178.48 503.067,172.848 Q488.029,167.216 470.725,167.216 z M470.725,347.44 Q486.381,347.44 501.419,352.048 Q516.457,356.656 528.199,366.896 Q539.941,377.136 547.151,393.52 Q554.361,409.904 554.361,433.968 Q554.361,456.496 547.769,473.136 Q541.177,489.776 529.847,500.784 Q518.517,511.792 503.067,517.168 Q487.617,522.544 469.489,522.544 L352.481,522.544 L352.481,347.44 L470.725,347.44 z M470.725,177.456 Q486.381,177.456 499.977,182.32 Q513.573,187.184 523.667,197.168 Q533.761,207.152 539.529,222.256 Q545.297,237.36 545.297,258.352 Q545.297,277.808 539.117,292.656 Q532.937,307.504 522.637,317.488 Q512.337,327.472 498.947,332.336 Q485.557,337.2 470.725,337.2 L352.481,337.2 L352.481,177.456 L470.725,177.456 z" fill="#FFFFFF"/>
  </g>
</svg>
