<?xml version="1.0" encoding="UTF-8"?>
<!DOCTYPE svg PUBLIC "-//W3C//DTD SVG 1.1//EN" "http://www.w3.org/Graphics/SVG/1.1/DTD/svg11.dtd">
<svg version="1.1" xmlns="http://www.w3.org/2000/svg" xmlns:xlink="http://www.w3.org/1999/xlink" x="0" y="0" width="1000" height="1000" viewBox="0, 0, 1000, 1000">
  <g id="bg" display="none">
    <path d="M0,0 L1000,0 L1000,1000 L0,1000 L0,0 z" fill="#3EAFFA"/>
    <text transform="matrix(1, 0, 0, 1, 169.431, 141.325)"/>
  </g>
  <g id="Layer_1">
    <path d="M500,-0.541 L933.482,249.729 L933.482,750.271 L500,1000.541 L66.518,750.271 L66.518,249.729 L500,-0.541 z M706.804,448.408 L699.916,448.408 L770.108,615.36 L757.972,646.52 Q755.02,654.064 751.576,658.492 Q748.132,662.92 743.704,665.052 Q739.276,667.184 733.208,667.676 Q727.14,668.168 718.612,668.168 L718.612,674.728 Q726.156,674.728 732.88,674.236 Q739.604,673.744 745.18,671.448 Q750.756,669.152 755.348,664.396 Q759.94,659.64 763.22,651.112 L840.956,448.408 L834.068,448.408 L773.716,608.144 L706.804,448.408 z M551.988,382.808 L545.428,382.808 L545.428,617 L551.988,617 L551.988,569.768 L552.644,569.768 Q559.204,592.4 576.752,606.504 Q594.3,620.608 620.212,620.608 Q636.94,620.608 650.224,614.048 Q663.508,607.488 672.856,595.844 Q682.204,584.2 687.124,568.128 Q692.044,552.056 692.044,533.032 Q692.044,515.32 687.288,499.248 Q682.532,483.176 673.512,471.04 Q664.492,458.904 651.044,451.688 Q637.596,444.472 620.212,444.472 Q593.316,444.472 575.932,458.576 Q558.548,472.68 552.644,495.64 L551.988,495.64 L551.988,382.808 z M620.212,451.032 Q637.596,451.032 649.896,458.412 Q662.196,465.792 670.068,477.436 Q677.94,489.08 681.712,503.676 Q685.484,518.272 685.484,533.032 Q685.484,549.104 681.384,563.864 Q677.284,578.624 669.248,589.94 Q661.212,601.256 648.912,607.816 Q636.612,614.376 620.212,614.376 Q604.14,614.376 591.348,607.816 Q578.556,601.256 569.864,590.104 Q561.172,578.952 556.58,564.192 Q551.988,549.432 551.988,533.032 Q551.988,493.344 570.684,472.188 Q589.38,451.032 620.212,451.032 z M387.988,448.408 L381.428,448.408 L381.428,560.256 Q381.428,575.016 385.856,586.332 Q390.284,597.648 398.32,605.356 Q406.356,613.064 417.344,616.836 Q428.332,620.608 441.452,620.608 Q466.38,620.608 481.96,607.816 Q497.54,595.024 502.132,575.344 L502.788,575.344 L502.788,617 L509.348,617 L509.348,448.408 L502.788,448.408 L502.788,543.856 Q502.788,557.96 498.852,570.752 Q494.916,583.544 487.208,593.22 Q479.5,602.896 468.02,608.636 Q456.54,614.376 441.452,614.376 Q430.628,614.376 420.952,611.26 Q411.276,608.144 403.896,601.42 Q396.516,594.696 392.252,584.364 Q387.988,574.032 387.988,559.272 L387.988,448.408 z M276.468,382.808 L180.692,382.808 L180.692,617 L187.252,617 L187.252,507.12 L275.484,507.12 Q295.82,507.12 307.956,511.22 Q320.092,515.32 326.652,523.028 Q333.212,530.736 335.344,542.052 Q337.476,553.368 337.476,567.8 Q337.476,573.376 337.64,580.428 Q337.804,587.48 338.296,594.368 Q338.788,601.256 339.772,607.324 Q340.756,613.392 342.396,617 L349.612,617 Q347.972,614.704 346.988,608.8 Q346.004,602.896 345.348,595.68 Q344.692,588.464 344.364,581.084 Q344.036,573.704 344.036,568.784 Q344.036,554.68 342.396,543.528 Q340.756,532.376 335.836,524.176 Q330.916,515.976 321.732,510.892 Q312.548,505.808 297.788,503.84 L297.788,503.184 Q322.388,497.608 335.508,482.028 Q348.628,466.448 347.972,442.832 Q347.316,412 330.26,397.404 Q313.204,382.808 276.468,382.808 z M278.108,389.368 Q311.564,389.368 326.324,403.308 Q341.084,417.248 341.412,442.176 Q341.412,457.592 335.836,468.58 Q330.26,479.568 321.076,486.784 Q311.892,494 299.92,497.28 Q287.948,500.56 274.828,500.56 L187.252,500.56 L187.252,389.368 L278.108,389.368 z" fill="#FFFFFF"/>
  </g>
</svg>
